<?xml version="1.0" encoding="iso-8859-1"?>
<!-- Generator: Adobe Illustrator 18.1.1, SVG Export Plug-In . SVG Version: 6.00 Build 0)  -->
<svg version="1.1" id="Capa_1" xmlns="http://www.w3.org/2000/svg" xmlns:xlink="http://www.w3.org/1999/xlink" x="0px" y="0px"
	 viewBox="0 0 581.176 581.176" style="enable-background:new 0 0 581.176 581.176;" xml:space="preserve">
<g>
	<g>
		<circle cx="290.588" cy="208.11" r="80.711"/>
		<polygon points="391.495,309.016 371.323,309.016 351.127,309.016 230.049,309.016 209.853,309.016 189.681,309.016 
			169.51,309.016 149.314,309.016 149.314,500.732 189.681,500.732 189.681,349.36 209.853,349.36 209.853,551.173 371.323,551.173 
			371.323,349.36 391.495,349.36 391.495,500.732 431.863,500.732 431.863,309.016 411.667,309.016 		"/>
		<path d="M389.243,173.626c13.876,11.309,31.359,18.355,50.659,18.355c44.581,0,80.735-36.154,80.735-80.711
			c0-44.581-36.154-80.735-80.735-80.735s-80.735,36.154-80.735,80.735c0,7.144,1.235,13.924,2.954,20.511
			C374.326,143.212,383.601,157.523,389.243,173.626z"/>
		<path d="M560.981,212.154h-20.172h-20.172h-20.196H395.103c-1.138,28.671-13.658,54.34-33.393,72.647h9.589h20.172h20.196h20.196
			h24.216v24.216V454.31h64.559V252.497h20.172v151.372h40.368V212.154H560.981z"/>
		<path d="M141.274,191.473c19.3,0,36.784-7.047,50.659-18.355c5.642-16.103,14.917-30.415,27.122-41.869
			c1.719-6.562,2.954-13.367,2.954-20.511c0-44.581-36.154-80.735-80.735-80.735s-80.735,36.202-80.735,80.759
			S96.693,191.473,141.274,191.473z"/>
		<path d="M169.51,284.292h20.172h20.172h9.589c-19.712-18.307-32.255-43.976-33.393-72.647H80.711H60.539H40.368H20.196H0v191.716
			h40.368V251.988h20.172v201.814h64.559V308.508v-24.216h24.216H169.51z"/>
	</g>
</g>
<g>
</g>
<g>
</g>
<g>
</g>
<g>
</g>
<g>
</g>
<g>
</g>
<g>
</g>
<g>
</g>
<g>
</g>
<g>
</g>
<g>
</g>
<g>
</g>
<g>
</g>
<g>
</g>
<g>
</g>
</svg>
