<svg id="Expanded" xmlns="http://www.w3.org/2000/svg" viewBox="0 0 96 96"><path d="M93,92.47H3a1,1,0,0,1,0-2H93a1,1,0,0,1,0,2Z"/><path d="M90.18,92.47H81a1,1,0,0,1-1-1V25.21a1,1,0,0,1,1-1h9.16a1,1,0,0,1,1,1V91.47A1,1,0,0,1,90.18,92.47Zm-8.16-2h7.16V26.21H82Z"/><path d="M72.79,92.47H63.63a1,1,0,0,1-1-1V38.23a1,1,0,0,1,1-1h9.16a1,1,0,0,1,1,1V91.47A1,1,0,0,1,72.79,92.47Zm-8.16-2h7.16V39.23H64.63Z"/><path d="M55.4,92.47H46.24a1,1,0,0,1-1-1V53.11a1,1,0,0,1,1-1H55.4a1,1,0,0,1,1,1V91.47A1,1,0,0,1,55.4,92.47Zm-8.16-2H54.4V54.11H47.24Z"/><path d="M38,92.47H28.85a1,1,0,0,1-1-1V66.13a1,1,0,0,1,1-1H38a1,1,0,0,1,1,1V91.47A1,1,0,0,1,38,92.47Zm-8.16-2H37V67.13H29.85Z"/><path d="M20.62,92.47H11.46a1,1,0,0,1-1-1V77.29a1,1,0,0,1,1-1h9.16a1,1,0,0,1,1,1V91.47A1,1,0,0,1,20.62,92.47Zm-8.16-2h7.16V78.29H12.46Z"/><path d="M7.11,62.75a1,1,0,0,1-.4-1.92C7.2,60.62,55.17,39.51,75.09,4a1,1,0,0,1,1.36-.38A1,1,0,0,1,76.84,5C56.58,41.08,8,62.45,7.51,62.67A1.1,1.1,0,0,1,7.11,62.75Z"/><path d="M78.64,17.93a1,1,0,0,1-1-.79L75.2,5.72,63.78,8.18a1,1,0,0,1-.43-2L75.76,3.55A1,1,0,0,1,77,4.32l2.67,12.4a1,1,0,0,1-.77,1.19Z"/></svg>